<?xml version="1.0" encoding="UTF-8" standalone="no"?>
<!DOCTYPE svg PUBLIC "-//W3C//DTD SVG 1.1//EN"
 "http://www.w3.org/Graphics/SVG/1.1/DTD/svg11.dtd">
<!-- Generated by graphviz version 2.38.0 (20140413.2041)
 -->
<!-- Title: %3 Pages: 1 -->
<svg width="1573pt" height="332pt"
 viewBox="0.00 0.00 1572.63 332.00" xmlns="http://www.w3.org/2000/svg" xmlns:xlink="http://www.w3.org/1999/xlink">
<g id="graph0" class="graph" transform="scale(1 1) rotate(0) translate(4 328)">
<title>%3</title>
<polygon fill="white" stroke="none" points="-4,4 -4,-328 1568.63,-328 1568.63,4 -4,4"/>
<!-- Prospect Tanveer house in Cambridge -->
<g id="node1" class="node"><title>Prospect Tanveer house in Cambridge</title>
<ellipse fill="none" stroke="black" cx="635.238" cy="-234" rx="146.474" ry="18"/>
<text text-anchor="middle" x="635.238" y="-230.3" font-family="Times,serif" font-size="14.00">Prospect Tanveer house in Cambridge</text>
</g>
<!-- Buy Tanveer house in Cambridge -->
<g id="node2" class="node"><title>Buy Tanveer house in Cambridge</title>
<ellipse fill="none" stroke="black" cx="358.238" cy="-162" rx="130.777" ry="18"/>
<text text-anchor="middle" x="358.238" y="-158.3" font-family="Times,serif" font-size="14.00">Buy Tanveer house in Cambridge</text>
</g>
<!-- Prospect Tanveer house in Cambridge&#45;&gt;Buy Tanveer house in Cambridge -->
<g id="edge1" class="edge"><title>Prospect Tanveer house in Cambridge&#45;&gt;Buy Tanveer house in Cambridge</title>
<path fill="none" stroke="black" d="M574.106,-217.552C530.855,-206.622 472.783,-191.946 427.765,-180.57"/>
<polygon fill="black" stroke="black" points="428.339,-177.105 417.787,-178.048 426.624,-183.892 428.339,-177.105"/>
</g>
<!-- $400,000 house in Cambridge -->
<g id="node4" class="node"><title>$400,000 house in Cambridge</title>
<ellipse fill="none" stroke="black" cx="358.238" cy="-90" rx="118.079" ry="18"/>
<text text-anchor="middle" x="358.238" y="-86.3" font-family="Times,serif" font-size="14.00">$400,000 house in Cambridge</text>
</g>
<!-- Buy Tanveer house in Cambridge&#45;&gt;$400,000 house in Cambridge -->
<g id="edge3" class="edge"><title>Buy Tanveer house in Cambridge&#45;&gt;$400,000 house in Cambridge</title>
<path fill="none" stroke="black" d="M358.238,-143.697C358.238,-135.983 358.238,-126.712 358.238,-118.112"/>
<polygon fill="black" stroke="black" points="361.738,-118.104 358.238,-108.104 354.738,-118.104 361.738,-118.104"/>
</g>
<!-- Sell Pakistan Properties -->
<g id="node3" class="node"><title>Sell Pakistan Properties</title>
<ellipse fill="none" stroke="black" cx="133.238" cy="-234" rx="94.7833" ry="18"/>
<text text-anchor="middle" x="133.238" y="-230.3" font-family="Times,serif" font-size="14.00">Sell Pakistan Properties</text>
</g>
<!-- Sell Pakistan Properties&#45;&gt;Buy Tanveer house in Cambridge -->
<g id="edge2" class="edge"><title>Sell Pakistan Properties&#45;&gt;Buy Tanveer house in Cambridge</title>
<path fill="none" stroke="black" d="M180.406,-218.326C214.71,-207.653 261.417,-193.122 298.356,-181.63"/>
<polygon fill="black" stroke="black" points="299.5,-184.94 308.009,-178.627 297.42,-178.256 299.5,-184.94"/>
</g>
<!-- Pervaiz, Khalid, Shabia, Rabnawaz, Tanveer -->
<g id="node5" class="node"><title>Pervaiz, Khalid, Shabia, Rabnawaz, Tanveer</title>
<ellipse fill="none" stroke="black" cx="635.238" cy="-306" rx="169.77" ry="18"/>
<text text-anchor="middle" x="635.238" y="-302.3" font-family="Times,serif" font-size="14.00">Pervaiz, Khalid, Shabia, Rabnawaz, Tanveer</text>
</g>
<!-- Pervaiz, Khalid, Shabia, Rabnawaz, Tanveer&#45;&gt;Prospect Tanveer house in Cambridge -->
<g id="edge4" class="edge"><title>Pervaiz, Khalid, Shabia, Rabnawaz, Tanveer&#45;&gt;Prospect Tanveer house in Cambridge</title>
<path fill="none" stroke="black" d="M635.238,-287.697C635.238,-279.983 635.238,-270.712 635.238,-262.112"/>
<polygon fill="black" stroke="black" points="638.738,-262.104 635.238,-252.104 631.738,-262.104 638.738,-262.104"/>
</g>
<!-- Rabnawaz, Tanveer, Pervaiz -->
<g id="node6" class="node"><title>Rabnawaz, Tanveer, Pervaiz</title>
<ellipse fill="none" stroke="black" cx="358.238" cy="-234" rx="112.38" ry="18"/>
<text text-anchor="middle" x="358.238" y="-230.3" font-family="Times,serif" font-size="14.00">Rabnawaz, Tanveer, Pervaiz</text>
</g>
<!-- Rabnawaz, Tanveer, Pervaiz&#45;&gt;Buy Tanveer house in Cambridge -->
<g id="edge5" class="edge"><title>Rabnawaz, Tanveer, Pervaiz&#45;&gt;Buy Tanveer house in Cambridge</title>
<path fill="none" stroke="black" d="M358.238,-215.697C358.238,-207.983 358.238,-198.712 358.238,-190.112"/>
<polygon fill="black" stroke="black" points="361.738,-190.104 358.238,-180.104 354.738,-190.104 361.738,-190.104"/>
</g>
<!-- Sajaad, Rabnawaz, Khalid, Shabia -->
<g id="node7" class="node"><title>Sajaad, Rabnawaz, Khalid, Shabia</title>
<ellipse fill="none" stroke="black" cx="133.238" cy="-306" rx="133.477" ry="18"/>
<text text-anchor="middle" x="133.238" y="-302.3" font-family="Times,serif" font-size="14.00">Sajaad, Rabnawaz, Khalid, Shabia</text>
</g>
<!-- Sajaad, Rabnawaz, Khalid, Shabia&#45;&gt;Sell Pakistan Properties -->
<g id="edge6" class="edge"><title>Sajaad, Rabnawaz, Khalid, Shabia&#45;&gt;Sell Pakistan Properties</title>
<path fill="none" stroke="black" d="M133.238,-287.697C133.238,-279.983 133.238,-270.712 133.238,-262.112"/>
<polygon fill="black" stroke="black" points="136.738,-262.104 133.238,-252.104 129.738,-262.104 136.738,-262.104"/>
</g>
<!-- Prospect Triplex in Oshawa -->
<g id="node8" class="node"><title>Prospect Triplex in Oshawa</title>
<ellipse fill="none" stroke="black" cx="1436.24" cy="-162" rx="109.381" ry="18"/>
<text text-anchor="middle" x="1436.24" y="-158.3" font-family="Times,serif" font-size="14.00">Prospect Triplex in Oshawa</text>
</g>
<!-- Buy duplex / triplex in Oshawa -->
<g id="node9" class="node"><title>Buy duplex / triplex in Oshawa</title>
<ellipse fill="none" stroke="black" cx="1117.24" cy="-90" rx="122.379" ry="18"/>
<text text-anchor="middle" x="1117.24" y="-86.3" font-family="Times,serif" font-size="14.00">Buy duplex / triplex in Oshawa</text>
</g>
<!-- Prospect Triplex in Oshawa&#45;&gt;Buy duplex / triplex in Oshawa -->
<g id="edge7" class="edge"><title>Prospect Triplex in Oshawa&#45;&gt;Buy duplex / triplex in Oshawa</title>
<path fill="none" stroke="black" d="M1373.59,-147.254C1321.58,-135.84 1247.45,-119.573 1192.27,-107.466"/>
<polygon fill="black" stroke="black" points="1192.72,-103.98 1182.2,-105.255 1191.22,-110.818 1192.72,-103.98"/>
</g>
<!-- $500,000 duplex / triplex in Oshawa -->
<g id="node12" class="node"><title>$500,000 duplex / triplex in Oshawa</title>
<ellipse fill="none" stroke="black" cx="1117.24" cy="-18" rx="140.275" ry="18"/>
<text text-anchor="middle" x="1117.24" y="-14.3" font-family="Times,serif" font-size="14.00">$500,000 duplex / triplex in Oshawa</text>
</g>
<!-- Buy duplex / triplex in Oshawa&#45;&gt;$500,000 duplex / triplex in Oshawa -->
<g id="edge10" class="edge"><title>Buy duplex / triplex in Oshawa&#45;&gt;$500,000 duplex / triplex in Oshawa</title>
<path fill="none" stroke="black" d="M1117.24,-71.6966C1117.24,-63.9827 1117.24,-54.7125 1117.24,-46.1124"/>
<polygon fill="black" stroke="black" points="1120.74,-46.1043 1117.24,-36.1043 1113.74,-46.1044 1120.74,-46.1043"/>
</g>
<!-- Sell 232 Rymal -->
<g id="node10" class="node"><title>Sell 232 Rymal</title>
<ellipse fill="none" stroke="black" cx="1044.24" cy="-234" rx="66.0889" ry="18"/>
<text text-anchor="middle" x="1044.24" y="-230.3" font-family="Times,serif" font-size="14.00">Sell 232 Rymal</text>
</g>
<!-- Renovate 232 Rymal -->
<g id="node11" class="node"><title>Renovate 232 Rymal</title>
<ellipse fill="none" stroke="black" cx="1117.24" cy="-162" rx="85.5853" ry="18"/>
<text text-anchor="middle" x="1117.24" y="-158.3" font-family="Times,serif" font-size="14.00">Renovate 232 Rymal</text>
</g>
<!-- Sell 232 Rymal&#45;&gt;Renovate 232 Rymal -->
<g id="edge8" class="edge"><title>Sell 232 Rymal&#45;&gt;Renovate 232 Rymal</title>
<path fill="none" stroke="black" d="M1061.54,-216.411C1070.74,-207.583 1082.23,-196.572 1092.37,-186.844"/>
<polygon fill="black" stroke="black" points="1095.01,-189.16 1099.81,-179.713 1090.17,-184.108 1095.01,-189.16"/>
</g>
<!-- Renovate 232 Rymal&#45;&gt;Buy duplex / triplex in Oshawa -->
<g id="edge9" class="edge"><title>Renovate 232 Rymal&#45;&gt;Buy duplex / triplex in Oshawa</title>
<path fill="none" stroke="black" d="M1117.24,-143.697C1117.24,-135.983 1117.24,-126.712 1117.24,-118.112"/>
<polygon fill="black" stroke="black" points="1120.74,-118.104 1117.24,-108.104 1113.74,-118.104 1120.74,-118.104"/>
</g>
<!-- Shabia, Khalid, Rabnawaz, Mehwish, Saleem -->
<g id="node13" class="node"><title>Shabia, Khalid, Rabnawaz, Mehwish, Saleem</title>
<ellipse fill="none" stroke="black" cx="997.238" cy="-306" rx="174.369" ry="18"/>
<text text-anchor="middle" x="997.238" y="-302.3" font-family="Times,serif" font-size="14.00">Shabia, Khalid, Rabnawaz, Mehwish, Saleem</text>
</g>
<!-- Shabia, Khalid, Rabnawaz, Mehwish, Saleem&#45;&gt;Buy duplex / triplex in Oshawa -->
<g id="edge11" class="edge"><title>Shabia, Khalid, Rabnawaz, Mehwish, Saleem&#45;&gt;Buy duplex / triplex in Oshawa</title>
<path fill="none" stroke="black" d="M985.351,-287.725C979.226,-277.765 972.393,-264.727 969.238,-252 965.388,-236.47 964.246,-231.201 969.238,-216 981.635,-178.248 992.433,-170.277 1022.24,-144 1036.45,-131.471 1054.11,-120.624 1070.33,-112.063"/>
<polygon fill="black" stroke="black" points="1072.37,-114.955 1079.68,-107.292 1069.19,-108.72 1072.37,-114.955"/>
</g>
<!-- Shabia, Khalid, Rabnawaz, Mehwish, Saleem&#45;&gt;Sell 232 Rymal -->
<g id="edge13" class="edge"><title>Shabia, Khalid, Rabnawaz, Mehwish, Saleem&#45;&gt;Sell 232 Rymal</title>
<path fill="none" stroke="black" d="M1008.86,-287.697C1014.38,-279.474 1021.09,-269.483 1027.17,-260.421"/>
<polygon fill="black" stroke="black" points="1030.09,-262.358 1032.75,-252.104 1024.27,-258.456 1030.09,-262.358"/>
</g>
<!-- Umar, Mariam, Mehwish, Saleem -->
<g id="node14" class="node"><title>Umar, Mariam, Mehwish, Saleem</title>
<ellipse fill="none" stroke="black" cx="1262.24" cy="-234" rx="133.776" ry="18"/>
<text text-anchor="middle" x="1262.24" y="-230.3" font-family="Times,serif" font-size="14.00">Umar, Mariam, Mehwish, Saleem</text>
</g>
<!-- Umar, Mariam, Mehwish, Saleem&#45;&gt;Renovate 232 Rymal -->
<g id="edge12" class="edge"><title>Umar, Mariam, Mehwish, Saleem&#45;&gt;Renovate 232 Rymal</title>
<path fill="none" stroke="black" d="M1228.24,-216.588C1207.59,-206.617 1181.06,-193.81 1159.12,-183.217"/>
<polygon fill="black" stroke="black" points="1160.55,-180.023 1150.02,-178.827 1157.51,-186.327 1160.55,-180.023"/>
</g>
<!-- Mehwish, Saleem -->
<g id="node15" class="node"><title>Mehwish, Saleem</title>
<ellipse fill="none" stroke="black" cx="1489.24" cy="-234" rx="75.2868" ry="18"/>
<text text-anchor="middle" x="1489.24" y="-230.3" font-family="Times,serif" font-size="14.00">Mehwish, Saleem</text>
</g>
<!-- Mehwish, Saleem&#45;&gt;Prospect Triplex in Oshawa -->
<g id="edge14" class="edge"><title>Mehwish, Saleem&#45;&gt;Prospect Triplex in Oshawa</title>
<path fill="none" stroke="black" d="M1476.41,-216.055C1470.12,-207.753 1462.42,-197.584 1455.45,-188.378"/>
<polygon fill="black" stroke="black" points="1458.14,-186.135 1449.32,-180.275 1452.56,-190.361 1458.14,-186.135"/>
</g>
</g>
</svg>
