<?xml version="1.0" encoding="UTF-8" standalone="no"?>
<!DOCTYPE svg PUBLIC "-//W3C//DTD SVG 1.1//EN"
 "http://www.w3.org/Graphics/SVG/1.1/DTD/svg11.dtd">
<!-- Generated by graphviz version 2.38.0 (20140413.2041)
 -->
<!-- Title: %3 Pages: 1 -->
<svg width="1334pt" height="872pt"
 viewBox="0.00 0.00 1333.63 872.32" xmlns="http://www.w3.org/2000/svg" xmlns:xlink="http://www.w3.org/1999/xlink">
<g id="graph0" class="graph" transform="scale(1 1) rotate(0) translate(538.418 423.333)">
<title>%3</title>
<polygon fill="white" stroke="none" points="-538.418,448.991 -538.418,-423.333 795.211,-423.333 795.211,448.991 -538.418,448.991"/>
<!-- Prospect Tanveer house in Cambridge -->
<g id="node1" class="node"><title>Prospect Tanveer house in Cambridge</title>
<ellipse fill="none" stroke="black" cx="147.089" cy="-160.222" rx="146.474" ry="18"/>
<text text-anchor="middle" x="147.089" y="-156.522" font-family="Times,serif" font-size="14.00">Prospect Tanveer house in Cambridge</text>
</g>
<!-- Buy Tanveer house in Cambridge -->
<g id="node2" class="node"><title>Buy Tanveer house in Cambridge</title>
<ellipse fill="none" stroke="black" cx="-137.815" cy="-118.275" rx="130.777" ry="18"/>
<text text-anchor="middle" x="-137.815" y="-114.575" font-family="Times,serif" font-size="14.00">Buy Tanveer house in Cambridge</text>
</g>
<!-- Prospect Tanveer house in Cambridge&#45;&gt;Buy Tanveer house in Cambridge -->
<g id="edge1" class="edge"><title>Prospect Tanveer house in Cambridge&#45;&gt;Buy Tanveer house in Cambridge</title>
<path fill="none" stroke="black" d="M53.0108,-146.371C23.741,-142.061 -8.62067,-137.297 -38.2519,-132.934"/>
<polygon fill="black" stroke="black" points="-37.7845,-129.465 -48.1877,-131.471 -38.8042,-136.391 -37.7845,-129.465"/>
</g>
<!-- $400,000 house in Cambridge -->
<g id="node4" class="node"><title>$400,000 house in Cambridge</title>
<ellipse fill="none" stroke="black" cx="-188.206" cy="-401.333" rx="118.079" ry="18"/>
<text text-anchor="middle" x="-188.206" y="-397.633" font-family="Times,serif" font-size="14.00">$400,000 house in Cambridge</text>
</g>
<!-- Buy Tanveer house in Cambridge&#45;&gt;$400,000 house in Cambridge -->
<g id="edge3" class="edge"><title>Buy Tanveer house in Cambridge&#45;&gt;$400,000 house in Cambridge</title>
<path fill="none" stroke="black" d="M-141.044,-136.412C-149.592,-184.428 -172.859,-315.126 -183.171,-373.049"/>
<polygon fill="black" stroke="black" points="-186.632,-372.522 -184.939,-382.981 -179.74,-373.749 -186.632,-372.522"/>
</g>
<!-- Sell Pakistan Properties -->
<g id="node3" class="node"><title>Sell Pakistan Properties</title>
<ellipse fill="none" stroke="black" cx="-170.159" cy="167.992" rx="94.7833" ry="18"/>
<text text-anchor="middle" x="-170.159" y="171.692" font-family="Times,serif" font-size="14.00">Sell Pakistan Properties</text>
</g>
<!-- Sell Pakistan Properties&#45;&gt;Buy Tanveer house in Cambridge -->
<g id="edge2" class="edge"><title>Sell Pakistan Properties&#45;&gt;Buy Tanveer house in Cambridge</title>
<path fill="none" stroke="black" d="M-168.087,149.649C-162.587,100.973 -147.594,-31.7231 -141,-90.0891"/>
<polygon fill="black" stroke="black" points="-144.471,-90.5415 -139.871,-100.085 -137.515,-89.7555 -144.471,-90.5415"/>
</g>
<!-- Pervaiz, Khalid, Shabia, Rabnawaz, Tanveer -->
<g id="node5" class="node"><title>Pervaiz, Khalid, Shabia, Rabnawaz, Tanveer</title>
<ellipse fill="none" stroke="black" cx="406.832" cy="-223.742" rx="169.77" ry="18"/>
<text text-anchor="middle" x="406.832" y="-220.042" font-family="Times,serif" font-size="14.00">Pervaiz, Khalid, Shabia, Rabnawaz, Tanveer</text>
</g>
<!-- Pervaiz, Khalid, Shabia, Rabnawaz, Tanveer&#45;&gt;Prospect Tanveer house in Cambridge -->
<g id="edge4" class="edge"><title>Pervaiz, Khalid, Shabia, Rabnawaz, Tanveer&#45;&gt;Prospect Tanveer house in Cambridge</title>
<path fill="none" stroke="black" d="M339.265,-207.219C303.68,-198.516 259.915,-187.813 223.143,-178.821"/>
<polygon fill="black" stroke="black" points="223.515,-175.309 212.97,-176.333 221.852,-182.108 223.515,-175.309"/>
</g>
<!-- Rabnawaz, Tanveer, Pervaiz -->
<g id="node6" class="node"><title>Rabnawaz, Tanveer, Pervaiz</title>
<ellipse fill="none" stroke="black" cx="-421.978" cy="-160.411" rx="112.38" ry="18"/>
<text text-anchor="middle" x="-421.978" y="-156.711" font-family="Times,serif" font-size="14.00">Rabnawaz, Tanveer, Pervaiz</text>
</g>
<!-- Rabnawaz, Tanveer, Pervaiz&#45;&gt;Buy Tanveer house in Cambridge -->
<g id="edge5" class="edge"><title>Rabnawaz, Tanveer, Pervaiz&#45;&gt;Buy Tanveer house in Cambridge</title>
<path fill="none" stroke="black" d="M-339.405,-148.167C-307.402,-143.422 -270.483,-137.947 -237.055,-132.991"/>
<polygon fill="black" stroke="black" points="-236.18,-136.399 -226.802,-131.47 -237.207,-129.475 -236.18,-136.399"/>
</g>
<!-- Sajaad, Rabnawaz, Khalid, Shabia -->
<g id="node7" class="node"><title>Sajaad, Rabnawaz, Khalid, Shabia</title>
<ellipse fill="none" stroke="black" cx="-237.761" cy="426.991" rx="133.477" ry="18"/>
<text text-anchor="middle" x="-237.761" y="430.691" font-family="Times,serif" font-size="14.00">Sajaad, Rabnawaz, Khalid, Shabia</text>
</g>
<!-- Sajaad, Rabnawaz, Khalid, Shabia&#45;&gt;Sell Pakistan Properties -->
<g id="edge6" class="edge"><title>Sajaad, Rabnawaz, Khalid, Shabia&#45;&gt;Sell Pakistan Properties</title>
<path fill="none" stroke="black" d="M-233.008,408.779C-221.371,364.197 -191.393,249.342 -177.468,195.995"/>
<polygon fill="black" stroke="black" points="-180.82,194.976 -174.908,186.184 -174.047,196.744 -180.82,194.976"/>
</g>
<!-- Prospect Triplex in Oshawa -->
<g id="node8" class="node"><title>Prospect Triplex in Oshawa</title>
<ellipse fill="none" stroke="black" cx="571.867" cy="254.699" rx="109.381" ry="18"/>
<text text-anchor="middle" x="571.867" y="258.399" font-family="Times,serif" font-size="14.00">Prospect Triplex in Oshawa</text>
</g>
<!-- Buy duplex / triplex in Oshawa -->
<g id="node9" class="node"><title>Buy duplex / triplex in Oshawa</title>
<ellipse fill="none" stroke="black" cx="415.125" cy="182.846" rx="122.379" ry="18"/>
<text text-anchor="middle" x="415.125" y="186.546" font-family="Times,serif" font-size="14.00">Buy duplex / triplex in Oshawa</text>
</g>
<!-- Prospect Triplex in Oshawa&#45;&gt;Buy duplex / triplex in Oshawa -->
<g id="edge7" class="edge"><title>Prospect Triplex in Oshawa&#45;&gt;Buy duplex / triplex in Oshawa</title>
<path fill="none" stroke="black" d="M534.721,237.671C512.92,227.677 485.169,214.956 461.888,204.283"/>
<polygon fill="black" stroke="black" points="460.179,207.35 452.547,200.001 463.096,200.987 460.179,207.35"/>
</g>
<!-- $500,000 duplex / triplex in Oshawa -->
<g id="node12" class="node"><title>$500,000 duplex / triplex in Oshawa</title>
<ellipse fill="none" stroke="black" cx="487.61" cy="22.5439" rx="140.275" ry="18"/>
<text text-anchor="middle" x="487.61" y="26.2439" font-family="Times,serif" font-size="14.00">$500,000 duplex / triplex in Oshawa</text>
</g>
<!-- Buy duplex / triplex in Oshawa&#45;&gt;$500,000 duplex / triplex in Oshawa -->
<g id="edge10" class="edge"><title>Buy duplex / triplex in Oshawa&#45;&gt;$500,000 duplex / triplex in Oshawa</title>
<path fill="none" stroke="black" d="M423.299,164.769C435.915,136.868 460.224,83.1096 475.073,50.2694"/>
<polygon fill="black" stroke="black" points="472.046,48.4706 479.355,40.8009 478.424,51.3548 472.046,48.4706"/>
</g>
<!-- Sell 232 Rymal -->
<g id="node10" class="node"><title>Sell 232 Rymal</title>
<ellipse fill="none" stroke="black" cx="163.191" cy="293.057" rx="66.0889" ry="18"/>
<text text-anchor="middle" x="163.191" y="296.757" font-family="Times,serif" font-size="14.00">Sell 232 Rymal</text>
</g>
<!-- Renovate 232 Rymal -->
<g id="node11" class="node"><title>Renovate 232 Rymal</title>
<ellipse fill="none" stroke="black" cx="243.698" cy="138.842" rx="85.5853" ry="18"/>
<text text-anchor="middle" x="243.698" y="142.542" font-family="Times,serif" font-size="14.00">Renovate 232 Rymal</text>
</g>
<!-- Sell 232 Rymal&#45;&gt;Renovate 232 Rymal -->
<g id="edge8" class="edge"><title>Sell 232 Rymal&#45;&gt;Renovate 232 Rymal</title>
<path fill="none" stroke="black" d="M172.584,275.065C186.567,248.279 212.968,197.707 229.37,166.287"/>
<polygon fill="black" stroke="black" points="226.385,164.443 234.115,157.198 232.59,167.682 226.385,164.443"/>
</g>
<!-- Renovate 232 Rymal&#45;&gt;Buy duplex / triplex in Oshawa -->
<g id="edge9" class="edge"><title>Renovate 232 Rymal&#45;&gt;Buy duplex / triplex in Oshawa</title>
<path fill="none" stroke="black" d="M298.41,152.886C312.958,156.621 328.884,160.709 344.165,164.632"/>
<polygon fill="black" stroke="black" points="345.277,161.303 354.093,167.18 343.537,168.084 345.277,161.303"/>
</g>
<!-- Shabia, Khalid, Rabnawaz, Mehwish, Saleem -->
<g id="node13" class="node"><title>Shabia, Khalid, Rabnawaz, Mehwish, Saleem</title>
<ellipse fill="none" stroke="black" cx="324.419" cy="337.571" rx="174.369" ry="18"/>
<text text-anchor="middle" x="324.419" y="341.271" font-family="Times,serif" font-size="14.00">Shabia, Khalid, Rabnawaz, Mehwish, Saleem</text>
</g>
<!-- Shabia, Khalid, Rabnawaz, Mehwish, Saleem&#45;&gt;Buy duplex / triplex in Oshawa -->
<g id="edge11" class="edge"><title>Shabia, Khalid, Rabnawaz, Mehwish, Saleem&#45;&gt;Buy duplex / triplex in Oshawa</title>
<path fill="none" stroke="black" d="M335.001,319.519C350.909,292.384 381.08,240.919 399.517,209.469"/>
<polygon fill="black" stroke="black" points="396.532,207.64 404.609,200.783 402.571,211.18 396.532,207.64"/>
</g>
<!-- Shabia, Khalid, Rabnawaz, Mehwish, Saleem&#45;&gt;Sell 232 Rymal -->
<g id="edge13" class="edge"><title>Shabia, Khalid, Rabnawaz, Mehwish, Saleem&#45;&gt;Sell 232 Rymal</title>
<path fill="none" stroke="black" d="M263.006,320.615C248.827,316.7 233.807,312.553 219.842,308.698"/>
<polygon fill="black" stroke="black" points="218.595,311.984 209.888,305.949 220.458,305.237 218.595,311.984"/>
</g>
<!-- Umar, Mariam, Mehwish, Saleem -->
<g id="node14" class="node"><title>Umar, Mariam, Mehwish, Saleem</title>
<ellipse fill="none" stroke="black" cx="134.273" cy="11.9289" rx="133.776" ry="18"/>
<text text-anchor="middle" x="134.273" y="15.6289" font-family="Times,serif" font-size="14.00">Umar, Mariam, Mehwish, Saleem</text>
</g>
<!-- Umar, Mariam, Mehwish, Saleem&#45;&gt;Renovate 232 Rymal -->
<g id="edge12" class="edge"><title>Umar, Mariam, Mehwish, Saleem&#45;&gt;Renovate 232 Rymal</title>
<path fill="none" stroke="black" d="M149.719,29.8432C168.456,51.5746 200.178,88.367 221.523,113.124"/>
<polygon fill="black" stroke="black" points="224.451,111.16 228.33,121.019 219.15,115.731 224.451,111.16"/>
</g>
<!-- Mehwish, Saleem -->
<g id="node15" class="node"><title>Mehwish, Saleem</title>
<ellipse fill="none" stroke="black" cx="715.817" cy="326.512" rx="75.2868" ry="18"/>
<text text-anchor="middle" x="715.817" y="330.212" font-family="Times,serif" font-size="14.00">Mehwish, Saleem</text>
</g>
<!-- Mehwish, Saleem&#45;&gt;Prospect Triplex in Oshawa -->
<g id="edge14" class="edge"><title>Mehwish, Saleem&#45;&gt;Prospect Triplex in Oshawa</title>
<path fill="none" stroke="black" d="M683.153,310.217C663.047,300.187 637.038,287.212 615.221,276.327"/>
<polygon fill="black" stroke="black" points="613.542,279.401 606.157,271.805 616.667,273.138 613.542,279.401"/>
</g>
</g>
</svg>
