<?xml version="1.0" encoding="UTF-8" standalone="no"?>
<!DOCTYPE svg PUBLIC "-//W3C//DTD SVG 1.1//EN"
 "http://www.w3.org/Graphics/SVG/1.1/DTD/svg11.dtd">
<!-- Generated by graphviz version 2.38.0 (20140413.2041)
 -->
<!-- Title: %3 Pages: 1 -->
<svg width="1186pt" height="585pt"
 viewBox="0.00 0.00 1186.09 585.21" xmlns="http://www.w3.org/2000/svg" xmlns:xlink="http://www.w3.org/1999/xlink">
<g id="graph0" class="graph" transform="scale(1 1) rotate(0) translate(4 581.208)">
<title>%3</title>
<polygon fill="white" stroke="none" points="-4,4 -4,-581.208 1182.09,-581.208 1182.09,4 -4,4"/>
<!-- Prospect Tanveer house in Cambridge -->
<g id="node1" class="node"><title>Prospect Tanveer house in Cambridge</title>
<ellipse fill="none" stroke="black" cx="949.198" cy="-194.403" rx="146.474" ry="18"/>
<text text-anchor="middle" x="949.198" y="-190.703" font-family="Times,serif" font-size="14.00">Prospect Tanveer house in Cambridge</text>
</g>
<!-- Buy Tanveer house in Cambridge -->
<g id="node2" class="node"><title>Buy Tanveer house in Cambridge</title>
<ellipse fill="none" stroke="black" cx="893.898" cy="-249.703" rx="130.777" ry="18"/>
<text text-anchor="middle" x="893.898" y="-246.003" font-family="Times,serif" font-size="14.00">Buy Tanveer house in Cambridge</text>
</g>
<!-- Prospect Tanveer house in Cambridge&#45;&gt;Buy Tanveer house in Cambridge -->
<g id="edge1" class="edge"><title>Prospect Tanveer house in Cambridge&#45;&gt;Buy Tanveer house in Cambridge</title>
<path fill="none" stroke="black" d="M931.091,-212.51C927.232,-216.369 923.091,-220.51 919.023,-224.578"/>
<polygon fill="black" stroke="black" points="916.453,-222.198 911.857,-231.744 921.403,-227.148 916.453,-222.198"/>
</g>
<!-- $400,000 house in Cambridge -->
<g id="node4" class="node"><title>$400,000 house in Cambridge</title>
<ellipse fill="none" stroke="black" cx="1059.8" cy="-305.004" rx="118.079" ry="18"/>
<text text-anchor="middle" x="1059.8" y="-301.304" font-family="Times,serif" font-size="14.00">$400,000 house in Cambridge</text>
</g>
<!-- Buy Tanveer house in Cambridge&#45;&gt;$400,000 house in Cambridge -->
<g id="edge3" class="edge"><title>Buy Tanveer house in Cambridge&#45;&gt;$400,000 house in Cambridge</title>
<path fill="none" stroke="black" d="M944.124,-266.445C962.072,-272.428 982.455,-279.222 1001.06,-285.423"/>
<polygon fill="black" stroke="black" points="1000.01,-288.762 1010.6,-288.604 1002.22,-282.121 1000.01,-288.762"/>
</g>
<!-- Sell Pakistan Properties -->
<g id="node3" class="node"><title>Sell Pakistan Properties</title>
<ellipse fill="none" stroke="black" cx="838.597" cy="-305.004" rx="94.7833" ry="18"/>
<text text-anchor="middle" x="838.597" y="-301.304" font-family="Times,serif" font-size="14.00">Sell Pakistan Properties</text>
</g>
<!-- Sell Pakistan Properties&#45;&gt;Buy Tanveer house in Cambridge -->
<g id="edge2" class="edge"><title>Sell Pakistan Properties&#45;&gt;Buy Tanveer house in Cambridge</title>
<path fill="none" stroke="black" d="M856.399,-287.202C860.267,-283.334 864.43,-279.171 868.527,-275.074"/>
<polygon fill="black" stroke="black" points="871.153,-277.398 875.749,-267.852 866.203,-272.448 871.153,-277.398"/>
</g>
<!-- Pervaiz, Khalid, Shabia, Rabnawaz, Tanveer -->
<g id="node5" class="node"><title>Pervaiz, Khalid, Shabia, Rabnawaz, Tanveer</title>
<ellipse fill="none" stroke="black" cx="1004.5" cy="-139.102" rx="169.77" ry="18"/>
<text text-anchor="middle" x="1004.5" y="-135.402" font-family="Times,serif" font-size="14.00">Pervaiz, Khalid, Shabia, Rabnawaz, Tanveer</text>
</g>
<!-- Pervaiz, Khalid, Shabia, Rabnawaz, Tanveer&#45;&gt;Prospect Tanveer house in Cambridge -->
<g id="edge4" class="edge"><title>Pervaiz, Khalid, Shabia, Rabnawaz, Tanveer&#45;&gt;Prospect Tanveer house in Cambridge</title>
<path fill="none" stroke="black" d="M986.392,-157.209C982.533,-161.068 978.391,-165.209 974.324,-169.277"/>
<polygon fill="black" stroke="black" points="971.754,-166.897 967.158,-176.443 976.704,-171.847 971.754,-166.897"/>
</g>
<!-- Rabnawaz, Tanveer, Pervaiz -->
<g id="node6" class="node"><title>Rabnawaz, Tanveer, Pervaiz</title>
<ellipse fill="none" stroke="black" cx="838.597" cy="-83.8009" rx="112.38" ry="18"/>
<text text-anchor="middle" x="838.597" y="-80.1009" font-family="Times,serif" font-size="14.00">Rabnawaz, Tanveer, Pervaiz</text>
</g>
<!-- Rabnawaz, Tanveer, Pervaiz&#45;&gt;Buy Tanveer house in Cambridge -->
<g id="edge5" class="edge"><title>Rabnawaz, Tanveer, Pervaiz&#45;&gt;Buy Tanveer house in Cambridge</title>
<path fill="none" stroke="black" d="M824.775,-101.921C809.766,-123.921 789.431,-162.091 801.361,-194.403 806.785,-209.093 818.549,-220.088 831.929,-228.234"/>
<polygon fill="black" stroke="black" points="830.458,-231.419 840.904,-233.186 833.839,-225.29 830.458,-231.419"/>
</g>
<!-- Sajaad, Rabnawaz, Khalid, Shabia -->
<g id="node7" class="node"><title>Sajaad, Rabnawaz, Khalid, Shabia</title>
<ellipse fill="none" stroke="black" cx="783.296" cy="-360.305" rx="133.477" ry="18"/>
<text text-anchor="middle" x="783.296" y="-356.605" font-family="Times,serif" font-size="14.00">Sajaad, Rabnawaz, Khalid, Shabia</text>
</g>
<!-- Sajaad, Rabnawaz, Khalid, Shabia&#45;&gt;Sell Pakistan Properties -->
<g id="edge6" class="edge"><title>Sajaad, Rabnawaz, Khalid, Shabia&#45;&gt;Sell Pakistan Properties</title>
<path fill="none" stroke="black" d="M801.403,-342.197C805.262,-338.339 809.404,-334.197 813.471,-330.129"/>
<polygon fill="black" stroke="black" points="816.041,-332.509 820.637,-322.963 811.091,-327.56 816.041,-332.509"/>
</g>
<!-- Prospect Triplex in Oshawa -->
<g id="node8" class="node"><title>Prospect Triplex in Oshawa</title>
<ellipse fill="none" stroke="black" cx="165.595" cy="-469.006" rx="109.381" ry="18"/>
<text text-anchor="middle" x="165.595" y="-465.306" font-family="Times,serif" font-size="14.00">Prospect Triplex in Oshawa</text>
</g>
<!-- Buy duplex / triplex in Oshawa -->
<g id="node9" class="node"><title>Buy duplex / triplex in Oshawa</title>
<ellipse fill="none" stroke="black" cx="436.198" cy="-453.53" rx="122.379" ry="18"/>
<text text-anchor="middle" x="436.198" y="-449.83" font-family="Times,serif" font-size="14.00">Buy duplex / triplex in Oshawa</text>
</g>
<!-- Prospect Triplex in Oshawa&#45;&gt;Buy duplex / triplex in Oshawa -->
<g id="edge7" class="edge"><title>Prospect Triplex in Oshawa&#45;&gt;Buy duplex / triplex in Oshawa</title>
<path fill="none" stroke="black" d="M269.057,-463.089C282.984,-462.293 297.388,-461.469 311.633,-460.654"/>
<polygon fill="black" stroke="black" points="312.184,-464.128 321.968,-460.063 311.784,-457.14 312.184,-464.128"/>
</g>
<!-- $500,000 duplex / triplex in Oshawa -->
<g id="node12" class="node"><title>$500,000 duplex / triplex in Oshawa</title>
<ellipse fill="none" stroke="black" cx="706.802" cy="-469.006" rx="140.275" ry="18"/>
<text text-anchor="middle" x="706.802" y="-465.306" font-family="Times,serif" font-size="14.00">$500,000 duplex / triplex in Oshawa</text>
</g>
<!-- Buy duplex / triplex in Oshawa&#45;&gt;$500,000 duplex / triplex in Oshawa -->
<g id="edge10" class="edge"><title>Buy duplex / triplex in Oshawa&#45;&gt;$500,000 duplex / triplex in Oshawa</title>
<path fill="none" stroke="black" d="M550.174,-460.049C556.189,-460.393 562.261,-460.74 568.342,-461.088"/>
<polygon fill="black" stroke="black" points="568.392,-464.596 578.575,-461.673 568.791,-457.607 568.392,-464.596"/>
</g>
<!-- Sell 232 Rymal -->
<g id="node10" class="node"><title>Sell 232 Rymal</title>
<ellipse fill="none" stroke="black" cx="436.198" cy="-198.403" rx="66.0889" ry="18"/>
<text text-anchor="middle" x="436.198" y="-194.703" font-family="Times,serif" font-size="14.00">Sell 232 Rymal</text>
</g>
<!-- Renovate 232 Rymal -->
<g id="node11" class="node"><title>Renovate 232 Rymal</title>
<ellipse fill="none" stroke="black" cx="345.997" cy="-288.604" rx="85.5853" ry="18"/>
<text text-anchor="middle" x="345.997" y="-284.904" font-family="Times,serif" font-size="14.00">Renovate 232 Rymal</text>
</g>
<!-- Sell 232 Rymal&#45;&gt;Renovate 232 Rymal -->
<g id="edge8" class="edge"><title>Sell 232 Rymal&#45;&gt;Renovate 232 Rymal</title>
<path fill="none" stroke="black" d="M418.807,-215.794C405.168,-229.433 386.01,-248.591 370.769,-263.832"/>
<polygon fill="black" stroke="black" points="368.239,-261.412 363.643,-270.958 373.189,-266.361 368.239,-261.412"/>
</g>
<!-- Renovate 232 Rymal&#45;&gt;Buy duplex / triplex in Oshawa -->
<g id="edge9" class="edge"><title>Renovate 232 Rymal&#45;&gt;Buy duplex / triplex in Oshawa</title>
<path fill="none" stroke="black" d="M355.822,-306.568C371.64,-335.49 402.85,-392.555 421.381,-426.438"/>
<polygon fill="black" stroke="black" points="418.379,-428.243 426.248,-435.337 424.521,-424.884 418.379,-428.243"/>
</g>
<!-- Shabia, Khalid, Rabnawaz, Mehwish, Saleem -->
<g id="node13" class="node"><title>Shabia, Khalid, Rabnawaz, Mehwish, Saleem</title>
<ellipse fill="none" stroke="black" cx="526.4" cy="-108.201" rx="174.369" ry="18"/>
<text text-anchor="middle" x="526.4" y="-104.501" font-family="Times,serif" font-size="14.00">Shabia, Khalid, Rabnawaz, Mehwish, Saleem</text>
</g>
<!-- Shabia, Khalid, Rabnawaz, Mehwish, Saleem&#45;&gt;Buy duplex / triplex in Oshawa -->
<g id="edge11" class="edge"><title>Shabia, Khalid, Rabnawaz, Mehwish, Saleem&#45;&gt;Buy duplex / triplex in Oshawa</title>
<path fill="none" stroke="black" d="M522.05,-126.213C517.622,-144.454 510.513,-173.468 504.092,-198.492 482.862,-281.22 456.553,-378.69 443.817,-425.573"/>
<polygon fill="black" stroke="black" points="440.415,-424.746 441.168,-435.314 447.169,-426.582 440.415,-424.746"/>
</g>
<!-- Shabia, Khalid, Rabnawaz, Mehwish, Saleem&#45;&gt;Sell 232 Rymal -->
<g id="edge13" class="edge"><title>Shabia, Khalid, Rabnawaz, Mehwish, Saleem&#45;&gt;Sell 232 Rymal</title>
<path fill="none" stroke="black" d="M508.146,-126.455C494.644,-139.957 476.095,-158.506 461.213,-173.388"/>
<polygon fill="black" stroke="black" points="458.407,-171.244 453.811,-180.79 463.357,-176.194 458.407,-171.244"/>
</g>
<!-- Umar, Mariam, Mehwish, Saleem -->
<g id="node14" class="node"><title>Umar, Mariam, Mehwish, Saleem</title>
<ellipse fill="none" stroke="black" cx="255.796" cy="-18" rx="133.776" ry="18"/>
<text text-anchor="middle" x="255.796" y="-14.3" font-family="Times,serif" font-size="14.00">Umar, Mariam, Mehwish, Saleem</text>
</g>
<!-- Umar, Mariam, Mehwish, Saleem&#45;&gt;Renovate 232 Rymal -->
<g id="edge12" class="edge"><title>Umar, Mariam, Mehwish, Saleem&#45;&gt;Renovate 232 Rymal</title>
<path fill="none" stroke="black" d="M261.854,-36.1753C277.324,-82.5834 318.357,-205.683 336.796,-261.001"/>
<polygon fill="black" stroke="black" points="333.482,-262.128 339.965,-270.508 340.123,-259.914 333.482,-262.128"/>
</g>
<!-- Mehwish, Saleem -->
<g id="node15" class="node"><title>Mehwish, Saleem</title>
<ellipse fill="none" stroke="black" cx="75.3933" cy="-559.208" rx="75.2868" ry="18"/>
<text text-anchor="middle" x="75.3933" y="-555.508" font-family="Times,serif" font-size="14.00">Mehwish, Saleem</text>
</g>
<!-- Mehwish, Saleem&#45;&gt;Prospect Triplex in Oshawa -->
<g id="edge14" class="edge"><title>Mehwish, Saleem&#45;&gt;Prospect Triplex in Oshawa</title>
<path fill="none" stroke="black" d="M93.2142,-541.387C106.68,-527.92 125.344,-509.257 140.346,-494.255"/>
<polygon fill="black" stroke="black" points="143.215,-496.336 147.811,-486.79 138.265,-491.386 143.215,-496.336"/>
</g>
</g>
</svg>
