<?xml version="1.0" encoding="UTF-8" standalone="no"?>
<!DOCTYPE svg PUBLIC "-//W3C//DTD SVG 1.1//EN"
 "http://www.w3.org/Graphics/SVG/1.1/DTD/svg11.dtd">
<!-- Generated by graphviz version 2.38.0 (20140413.2041)
 -->
<!-- Title: %3 Pages: 1 -->
<svg width="4000pt" height="1532pt"
 viewBox="0.00 0.00 4000.13 1532.16" xmlns="http://www.w3.org/2000/svg" xmlns:xlink="http://www.w3.org/1999/xlink">
<g id="graph0" class="graph" transform="scale(1 1) rotate(0) translate(4 1528.16)">
<title>%3</title>
<polygon fill="white" stroke="none" points="-4,4 -4,-1528.16 3996.13,-1528.16 3996.13,4 -4,4"/>
<!-- Prospect Tanveer house in Cambridge -->
<g id="node1" class="node"><title>Prospect Tanveer house in Cambridge</title>
<ellipse fill="none" stroke="black" cx="1118.77" cy="-395.207" rx="146.474" ry="18"/>
<text text-anchor="middle" x="1118.77" y="-391.507" font-family="Times,serif" font-size="14.00">Prospect Tanveer house in Cambridge</text>
</g>
<!-- Buy Tanveer house in Cambridge -->
<g id="node2" class="node"><title>Buy Tanveer house in Cambridge</title>
<ellipse fill="none" stroke="black" cx="2067.9" cy="-395.207" rx="130.777" ry="18"/>
<text text-anchor="middle" x="2067.9" y="-391.507" font-family="Times,serif" font-size="14.00">Buy Tanveer house in Cambridge</text>
</g>
<!-- Prospect Tanveer house in Cambridge&#45;&gt;Buy Tanveer house in Cambridge -->
<g id="edge1" class="edge"><title>Prospect Tanveer house in Cambridge&#45;&gt;Buy Tanveer house in Cambridge</title>
<path fill="none" stroke="black" d="M1265.25,-395.207C1445.5,-395.207 1749.43,-395.207 1927.06,-395.207"/>
<polygon fill="black" stroke="black" points="1927.26,-398.707 1937.26,-395.207 1927.26,-391.707 1927.26,-398.707"/>
</g>
<!-- $400,000 house in Cambridge -->
<g id="node4" class="node"><title>$400,000 house in Cambridge</title>
<ellipse fill="none" stroke="black" cx="1792.97" cy="-18" rx="118.079" ry="18"/>
<text text-anchor="middle" x="1792.97" y="-14.3" font-family="Times,serif" font-size="14.00">$400,000 house in Cambridge</text>
</g>
<!-- Buy Tanveer house in Cambridge&#45;&gt;$400,000 house in Cambridge -->
<g id="edge3" class="edge"><title>Buy Tanveer house in Cambridge&#45;&gt;$400,000 house in Cambridge</title>
<path fill="none" stroke="black" d="M2054.64,-377.013C2009.91,-315.638 1864.44,-116.049 1812.02,-44.1307"/>
<polygon fill="black" stroke="black" points="1814.82,-42.0306 1806.1,-36.0109 1809.16,-46.1537 1814.82,-42.0306"/>
</g>
<!-- Sell Pakistan Properties -->
<g id="node3" class="node"><title>Sell Pakistan Properties</title>
<ellipse fill="none" stroke="black" cx="2365.43" cy="-397.071" rx="94.7833" ry="18"/>
<text text-anchor="middle" x="2365.43" y="-393.371" font-family="Times,serif" font-size="14.00">Sell Pakistan Properties</text>
</g>
<!-- Sell Pakistan Properties&#45;&gt;Buy Tanveer house in Cambridge -->
<g id="edge2" class="edge"><title>Sell Pakistan Properties&#45;&gt;Buy Tanveer house in Cambridge</title>
<path fill="none" stroke="black" d="M2270.47,-396.476C2250.82,-396.353 2229.71,-396.22 2208.81,-396.089"/>
<polygon fill="black" stroke="black" points="2208.6,-392.588 2198.58,-396.025 2208.55,-399.588 2208.6,-392.588"/>
</g>
<!-- Pervaiz, Khalid, Shabia, Rabnawaz, Tanveer -->
<g id="node5" class="node"><title>Pervaiz, Khalid, Shabia, Rabnawaz, Tanveer</title>
<ellipse fill="none" stroke="black" cx="169.635" cy="-395.207" rx="169.77" ry="18"/>
<text text-anchor="middle" x="169.635" y="-391.507" font-family="Times,serif" font-size="14.00">Pervaiz, Khalid, Shabia, Rabnawaz, Tanveer</text>
</g>
<!-- Pervaiz, Khalid, Shabia, Rabnawaz, Tanveer&#45;&gt;Prospect Tanveer house in Cambridge -->
<g id="edge4" class="edge"><title>Pervaiz, Khalid, Shabia, Rabnawaz, Tanveer&#45;&gt;Prospect Tanveer house in Cambridge</title>
<path fill="none" stroke="black" d="M339.321,-395.207C516.027,-395.207 790.532,-395.207 962.202,-395.207"/>
<polygon fill="black" stroke="black" points="962.337,-398.707 972.337,-395.207 962.337,-391.707 962.337,-398.707"/>
</g>
<!-- Rabnawaz, Tanveer, Pervaiz -->
<g id="node6" class="node"><title>Rabnawaz, Tanveer, Pervaiz</title>
<ellipse fill="none" stroke="black" cx="1792.97" cy="-772.413" rx="112.38" ry="18"/>
<text text-anchor="middle" x="1792.97" y="-768.713" font-family="Times,serif" font-size="14.00">Rabnawaz, Tanveer, Pervaiz</text>
</g>
<!-- Rabnawaz, Tanveer, Pervaiz&#45;&gt;Buy Tanveer house in Cambridge -->
<g id="edge5" class="edge"><title>Rabnawaz, Tanveer, Pervaiz&#45;&gt;Buy Tanveer house in Cambridge</title>
<path fill="none" stroke="black" d="M1806.23,-754.22C1850.97,-692.845 1996.44,-493.256 2048.86,-421.337"/>
<polygon fill="black" stroke="black" points="2051.72,-423.36 2054.78,-413.217 2046.06,-419.237 2051.72,-423.36"/>
</g>
<!-- Sajaad, Rabnawaz, Khalid, Shabia -->
<g id="node7" class="node"><title>Sajaad, Rabnawaz, Khalid, Shabia</title>
<ellipse fill="none" stroke="black" cx="2665.55" cy="-398.951" rx="133.477" ry="18"/>
<text text-anchor="middle" x="2665.55" y="-395.251" font-family="Times,serif" font-size="14.00">Sajaad, Rabnawaz, Khalid, Shabia</text>
</g>
<!-- Sajaad, Rabnawaz, Khalid, Shabia&#45;&gt;Sell Pakistan Properties -->
<g id="edge6" class="edge"><title>Sajaad, Rabnawaz, Khalid, Shabia&#45;&gt;Sell Pakistan Properties</title>
<path fill="none" stroke="black" d="M2532.17,-398.116C2511.64,-397.987 2490.68,-397.856 2470.87,-397.732"/>
<polygon fill="black" stroke="black" points="2470.65,-394.23 2460.63,-397.667 2470.6,-401.23 2470.65,-394.23"/>
</g>
<!-- Prospect Triplex in Oshawa -->
<g id="node8" class="node"><title>Prospect Triplex in Oshawa</title>
<ellipse fill="none" stroke="black" cx="2614.77" cy="-1058.21" rx="109.381" ry="18"/>
<text text-anchor="middle" x="2614.77" y="-1054.51" font-family="Times,serif" font-size="14.00">Prospect Triplex in Oshawa</text>
</g>
<!-- Buy duplex / triplex in Oshawa -->
<g id="node9" class="node"><title>Buy duplex / triplex in Oshawa</title>
<ellipse fill="none" stroke="black" cx="3512.49" cy="-1307.96" rx="122.379" ry="18"/>
<text text-anchor="middle" x="3512.49" y="-1304.26" font-family="Times,serif" font-size="14.00">Buy duplex / triplex in Oshawa</text>
</g>
<!-- Prospect Triplex in Oshawa&#45;&gt;Buy duplex / triplex in Oshawa -->
<g id="edge7" class="edge"><title>Prospect Triplex in Oshawa&#45;&gt;Buy duplex / triplex in Oshawa</title>
<path fill="none" stroke="black" d="M2670.59,-1073.74C2827.96,-1117.52 3274.81,-1241.83 3445.29,-1289.26"/>
<polygon fill="black" stroke="black" points="3444.57,-1292.69 3455.14,-1292 3446.44,-1285.95 3444.57,-1292.69"/>
</g>
<!-- $500,000 duplex / triplex in Oshawa -->
<g id="node12" class="node"><title>$500,000 duplex / triplex in Oshawa</title>
<ellipse fill="none" stroke="black" cx="3588.8" cy="-1506.16" rx="140.275" ry="18"/>
<text text-anchor="middle" x="3588.8" y="-1502.46" font-family="Times,serif" font-size="14.00">$500,000 duplex / triplex in Oshawa</text>
</g>
<!-- Buy duplex / triplex in Oshawa&#45;&gt;$500,000 duplex / triplex in Oshawa -->
<g id="edge10" class="edge"><title>Buy duplex / triplex in Oshawa&#45;&gt;$500,000 duplex / triplex in Oshawa</title>
<path fill="none" stroke="black" d="M3519.53,-1326.25C3532.96,-1361.13 3562.3,-1437.35 3578.14,-1478.5"/>
<polygon fill="black" stroke="black" points="3574.91,-1479.84 3581.77,-1487.92 3581.44,-1477.33 3574.91,-1479.84"/>
</g>
<!-- Sell 232 Rymal -->
<g id="node10" class="node"><title>Sell 232 Rymal</title>
<ellipse fill="none" stroke="black" cx="3320.21" cy="-808.458" rx="66.0889" ry="18"/>
<text text-anchor="middle" x="3320.21" y="-804.758" font-family="Times,serif" font-size="14.00">Sell 232 Rymal</text>
</g>
<!-- Renovate 232 Rymal -->
<g id="node11" class="node"><title>Renovate 232 Rymal</title>
<ellipse fill="none" stroke="black" cx="3666.1" cy="-962.064" rx="85.5853" ry="18"/>
<text text-anchor="middle" x="3666.1" y="-958.364" font-family="Times,serif" font-size="14.00">Renovate 232 Rymal</text>
</g>
<!-- Sell 232 Rymal&#45;&gt;Renovate 232 Rymal -->
<g id="edge8" class="edge"><title>Sell 232 Rymal&#45;&gt;Renovate 232 Rymal</title>
<path fill="none" stroke="black" d="M3354.96,-823.889C3417.62,-851.719 3549.56,-910.311 3619.81,-941.505"/>
<polygon fill="black" stroke="black" points="3618.73,-944.859 3629.29,-945.719 3621.57,-938.461 3618.73,-944.859"/>
</g>
<!-- Renovate 232 Rymal&#45;&gt;Buy duplex / triplex in Oshawa -->
<g id="edge9" class="edge"><title>Renovate 232 Rymal&#45;&gt;Buy duplex / triplex in Oshawa</title>
<path fill="none" stroke="black" d="M3658.06,-980.173C3632.82,-1037.01 3555.05,-1212.12 3524.76,-1280.34"/>
<polygon fill="black" stroke="black" points="3521.5,-1279.05 3520.64,-1289.61 3527.9,-1281.89 3521.5,-1279.05"/>
</g>
<!-- Shabia, Khalid, Rabnawaz, Mehwish, Saleem -->
<g id="node13" class="node"><title>Shabia, Khalid, Rabnawaz, Mehwish, Saleem</title>
<ellipse fill="none" stroke="black" cx="3166.6" cy="-1154.35" rx="174.369" ry="18"/>
<text text-anchor="middle" x="3166.6" y="-1150.65" font-family="Times,serif" font-size="14.00">Shabia, Khalid, Rabnawaz, Mehwish, Saleem</text>
</g>
<!-- Shabia, Khalid, Rabnawaz, Mehwish, Saleem&#45;&gt;Buy duplex / triplex in Oshawa -->
<g id="edge11" class="edge"><title>Shabia, Khalid, Rabnawaz, Mehwish, Saleem&#45;&gt;Buy duplex / triplex in Oshawa</title>
<path fill="none" stroke="black" d="M3206.28,-1171.97C3270.17,-1200.34 3395.64,-1256.06 3464.48,-1286.63"/>
<polygon fill="black" stroke="black" points="3463.25,-1289.92 3473.81,-1290.77 3466.09,-1283.52 3463.25,-1289.92"/>
</g>
<!-- Shabia, Khalid, Rabnawaz, Mehwish, Saleem&#45;&gt;Sell 232 Rymal -->
<g id="edge13" class="edge"><title>Shabia, Khalid, Rabnawaz, Mehwish, Saleem&#45;&gt;Sell 232 Rymal</title>
<path fill="none" stroke="black" d="M3174.64,-1136.24C3199.94,-1079.27 3278.01,-903.476 3308.16,-835.593"/>
<polygon fill="black" stroke="black" points="3311.39,-836.948 3312.25,-826.388 3304.99,-834.107 3311.39,-836.948"/>
</g>
<!-- Umar, Mariam, Mehwish, Saleem -->
<g id="node14" class="node"><title>Umar, Mariam, Mehwish, Saleem</title>
<ellipse fill="none" stroke="black" cx="3858.24" cy="-888.097" rx="133.776" ry="18"/>
<text text-anchor="middle" x="3858.24" y="-884.397" font-family="Times,serif" font-size="14.00">Umar, Mariam, Mehwish, Saleem</text>
</g>
<!-- Umar, Mariam, Mehwish, Saleem&#45;&gt;Renovate 232 Rymal -->
<g id="edge12" class="edge"><title>Umar, Mariam, Mehwish, Saleem&#45;&gt;Renovate 232 Rymal</title>
<path fill="none" stroke="black" d="M3813.68,-905.252C3784.77,-916.382 3747.02,-930.912 3716.94,-942.491"/>
<polygon fill="black" stroke="black" points="3715.54,-939.28 3707.47,-946.139 3718.06,-945.813 3715.54,-939.28"/>
</g>
<!-- Mehwish, Saleem -->
<g id="node15" class="node"><title>Mehwish, Saleem</title>
<ellipse fill="none" stroke="black" cx="1813.19" cy="-1058.21" rx="75.2868" ry="18"/>
<text text-anchor="middle" x="1813.19" y="-1054.51" font-family="Times,serif" font-size="14.00">Mehwish, Saleem</text>
</g>
<!-- Mehwish, Saleem&#45;&gt;Prospect Triplex in Oshawa -->
<g id="edge14" class="edge"><title>Mehwish, Saleem&#45;&gt;Prospect Triplex in Oshawa</title>
<path fill="none" stroke="black" d="M1888.6,-1058.21C2028.2,-1058.21 2327.87,-1058.21 2495.33,-1058.21"/>
<polygon fill="black" stroke="black" points="2495.42,-1061.71 2505.42,-1058.21 2495.42,-1054.71 2495.42,-1061.71"/>
</g>
</g>
</svg>
